<svg width="38" height="38" viewBox="0 0 38 38" fill="none" xmlns="http://www.w3.org/2000/svg">
<path opacity="0.21" d="M19.0764 0.475235C29.3345 0.475331 37.6506 8.79136 37.6506 19.0495C37.6505 29.3075 29.3344 37.6236 19.0764 37.6237H18.6672C8.40915 37.6237 0.0931238 29.3075 0.0930176 19.0495C0.0930176 8.7913 8.40908 0.475235 18.6672 0.475235H19.0764Z" fill="#4AD991"/>
<path d="M12.0563 25.7881H26.6619C27.1997 25.7881 27.6356 26.2193 27.6356 26.7512C27.6356 27.2831 27.1997 27.7143 26.6619 27.7143H11.0826C10.5448 27.7143 10.1089 27.2831 10.1089 26.7512V11.3416C10.1089 10.8097 10.5448 10.3785 11.0826 10.3785C11.6204 10.3785 12.0563 10.8097 12.0563 11.3416V25.7881Z" fill="#4AD991"/>
<path opacity="0.5" d="M15.6881 21.6316C15.3203 22.0196 14.7041 22.0393 14.3118 21.6755C13.9195 21.3117 13.8996 20.7022 14.2674 20.3142L17.9188 16.4618C18.2745 16.0865 18.8656 16.054 19.2612 16.3879L22.1431 18.8203L25.898 14.116C26.2312 13.6985 26.8435 13.6273 27.2656 13.9569C27.6877 14.2864 27.7597 14.8921 27.4265 15.3095L23.0448 20.7992C22.7025 21.228 22.0686 21.2897 21.6485 20.935L18.7039 18.4497L15.6881 21.6316Z" fill="#4AD991"/>
</svg>
