<svg width="41" height="40" viewBox="0 0 41 40" fill="none" xmlns="http://www.w3.org/2000/svg">
<path opacity="0.21" d="M20.8442 0.293106C31.7555 0.293106 40.6011 9.13869 40.6011 20.0499C40.6009 30.9611 31.7554 39.8058 20.8442 39.8058H20.4097C9.4985 39.8058 0.652973 30.9611 0.652832 20.0499C0.652832 9.13869 9.49841 0.293106 20.4097 0.293106H20.8442Z" fill="#8280FF"/>
<path opacity="0.587821" d="M25.9543 16.5368C27.4249 16.537 28.6172 17.7161 28.6174 19.1706C28.6174 20.6254 27.4251 21.8052 25.9543 21.8054C24.4835 21.8054 23.2913 20.6254 23.2913 19.1706C23.2915 17.716 24.4836 16.5368 25.9543 16.5368ZM17.9641 12.1472C19.9253 12.1472 21.5149 13.7201 21.5149 15.6599C21.5147 17.5995 19.9251 19.1716 17.9641 19.1716C16.0032 19.1715 14.4136 17.5994 14.4133 15.6599C14.4133 13.7201 16.0031 12.1473 17.9641 12.1472Z" fill="#8280FF"/>
<path d="M17.9507 20.9278C22.2009 20.9278 25.6925 22.9416 25.9526 27.25C25.963 27.4218 25.9529 27.9519 25.2866 27.9522H10.6215C10.3989 27.9522 9.9573 27.4773 9.97604 27.2491C10.3202 23.0584 13.7593 20.9278 17.9507 20.9278ZM25.6001 22.6846C28.6247 22.7169 31.0948 24.2294 31.2807 27.4258C31.2882 27.5547 31.2804 27.952 30.7993 27.9522H27.3764C27.3758 25.9757 26.7148 24.1517 25.6001 22.6846Z" fill="#8280FF"/>
</svg>
