<svg width="36" height="37" viewBox="0 0 36 37" fill="none" xmlns="http://www.w3.org/2000/svg">
<path d="M6.05386 3.95234C5.14683 4.12812 4.17651 4.88047 3.76167 5.73125C3.62808 6.00547 3.48042 6.39922 3.44526 6.61016C3.35386 7.11641 3.35386 14.1406 3.44526 14.6398C3.56479 15.2656 3.88823 15.8633 4.38042 16.3484C5.12573 17.0938 5.87105 17.375 7.15776 17.375H7.87495V14.5766V11.7781L7.56558 11.6937C6.57417 11.4336 6.48276 9.99219 7.43198 9.59844C7.76948 9.45078 28.2304 9.45078 28.5679 9.59844C29.5171 9.99219 29.4257 11.4336 28.4343 11.6937L28.125 11.7781V14.5766V17.375H28.821C29.721 17.375 30.157 17.2906 30.7687 16.9883C31.6476 16.5594 32.3718 15.6102 32.5546 14.6398C32.646 14.1336 32.646 7.11641 32.5546 6.61016C32.3718 5.63984 31.6476 4.69062 30.7687 4.26172C30.4945 4.12812 30.1007 3.98047 29.8898 3.94531C29.4187 3.86094 6.50386 3.86094 6.05386 3.95234Z" fill="#999999"/>
<path d="M10.125 20.8836C10.125 26.7969 10.1531 30.1438 10.1953 30.3898C10.3711 31.3109 11.1164 32.3164 11.9391 32.7313C12.7055 33.118 12.7758 33.125 17.9719 33.125C20.8687 33.125 22.9148 33.0969 23.1398 33.0547C24.4195 32.8156 25.5586 31.6766 25.8047 30.3898C25.8469 30.1438 25.875 26.7969 25.875 20.8836V11.75H18H10.125V20.8836ZM18.6187 16.4398C18.7172 16.5102 18.8648 16.6648 18.9422 16.7703C19.0828 16.9531 19.0898 17.0586 19.1109 19.7445L19.132 22.5289L19.9969 21.6781C20.7773 20.9117 20.8898 20.8273 21.1781 20.7852C21.7969 20.6938 22.3523 21.0945 22.4719 21.7203C22.5703 22.2195 22.4016 22.4305 20.4117 24.4203C18.3797 26.4453 18.3586 26.4523 17.7328 26.3398C17.5078 26.3047 17.2055 26.0305 15.525 24.35C13.4227 22.2477 13.4156 22.2336 13.5352 21.6148C13.5984 21.2703 14.0203 20.8484 14.3648 20.7852C14.9203 20.6797 15.0891 20.7711 16.0172 21.6852L16.875 22.5359V19.857C16.875 18.1273 16.9031 17.1008 16.9523 16.9742C17.0508 16.7141 17.2828 16.468 17.543 16.3484C17.8242 16.2148 18.3797 16.2641 18.6187 16.4398Z" fill="#999999"/>
</svg>
