<svg width="20" height="20" viewBox="0 0 20 20" fill="none" xmlns="http://www.w3.org/2000/svg">
<path d="M10 0.588257C7.05882 0.588257 4.70588 2.9412 4.70588 5.88237V8.23532C3.70588 8.23532 2.94118 9.00002 2.94118 10V17.6471C2.94118 18.6471 3.70588 19.4118 4.70588 19.4118H15.2941C16.2941 19.4118 17.0588 18.6471 17.0588 17.6471V10C17.0588 9.00002 16.2941 8.23532 15.2941 8.23532V5.88237C15.2941 2.9412 12.9412 0.588257 10 0.588257ZM15.8824 10V17.6471C15.8824 18 15.6471 18.2353 15.2941 18.2353H4.70588C4.35294 18.2353 4.11765 18 4.11765 17.6471V10C4.11765 9.64708 4.35294 9.41179 4.70588 9.41179H5.29412H14.7059H15.2941C15.6471 9.41179 15.8824 9.64708 15.8824 10ZM5.88235 8.23532V5.88237C5.88235 3.58826 7.70588 1.76473 10 1.76473C12.2941 1.76473 14.1176 3.58826 14.1176 5.88237V8.23532H5.88235Z" fill="#389FE2"/>
<path d="M10 11.1765C9 11.1765 8.23529 11.9412 8.23529 12.9412C8.23529 13.7059 8.70588 14.353 9.41176 14.5883V15.8824C9.41176 16.2353 9.64706 16.4706 10 16.4706C10.3529 16.4706 10.5882 16.2353 10.5882 15.8824V14.5883C11.2941 14.353 11.7647 13.7059 11.7647 12.9412C11.7647 11.9412 11 11.1765 10 11.1765ZM10 13.5295C9.64706 13.5295 9.41176 13.2942 9.41176 12.9412C9.41176 12.5883 9.64706 12.353 10 12.353C10.3529 12.353 10.5882 12.5883 10.5882 12.9412C10.5882 13.2942 10.3529 13.5295 10 13.5295Z" fill="#389FE2"/>
</svg>
