<svg width="30" height="30" viewBox="0 0 30 30" fill="none" xmlns="http://www.w3.org/2000/svg">
<path d="M13.0664 0.980469C8.21487 1.62031 4.05237 4.5875 1.89378 8.93984C0.916437 10.9086 0.466437 12.7156 0.396124 14.9727C0.346906 16.4422 0.473468 17.6305 0.803937 18.9453C2.69534 26.4687 10.1977 31.2008 17.7914 29.668C23.7961 28.4516 28.3664 23.6281 29.3086 17.5039C29.4703 16.4562 29.4774 14.4031 29.3157 13.3555C28.4157 7.47734 24.2039 2.77344 18.5508 1.33203C16.8282 0.889061 14.7539 0.762501 13.0664 0.980469ZM11.7867 7.30156C12.2719 7.49844 12.5391 8.03281 12.4336 8.58828C12.3985 8.79922 12.2367 9.01015 11.6391 9.60781L10.9008 10.3672L16.4625 10.3812C21.9539 10.4023 22.0242 10.4023 22.2141 10.55C22.5867 10.8242 22.6992 11.0492 22.6992 11.4922C22.6992 11.9352 22.5867 12.1602 22.2141 12.4344C22.0242 12.582 21.9539 12.582 16.4625 12.6031L10.9008 12.6172L11.6391 13.3766C12.4407 14.1852 12.5391 14.375 12.4336 14.9164C12.3703 15.268 11.9485 15.6828 11.5969 15.7461C11.0133 15.8586 10.8867 15.7672 8.97425 13.8617C6.45706 11.3445 6.46409 11.6469 8.90394 9.17891C10.8938 7.175 11.1328 7.02031 11.7867 7.30156ZM19.1203 15.282C19.5844 15.6195 22.5797 18.6852 22.6571 18.8961C22.7696 19.1984 22.7485 19.557 22.6008 19.8453C22.425 20.1758 19.1766 23.4102 18.9164 23.5086C18.0235 23.8461 17.1446 23.0937 17.3836 22.2008C17.4399 22.0039 17.6438 21.7437 18.1641 21.2305C18.5508 20.8437 18.8672 20.5062 18.8672 20.4781C18.8672 20.443 16.3992 20.4219 13.3828 20.4219C7.30081 20.4219 7.66644 20.45 7.28675 19.9578C7.13206 19.7539 7.09691 19.6273 7.09691 19.325C7.09691 18.9031 7.2305 18.6641 7.61722 18.3969L7.84925 18.2422H13.3547C16.3852 18.2422 18.8672 18.2211 18.8672 18.1859C18.8672 18.1578 18.5789 17.8484 18.2274 17.5039C17.2641 16.5547 17.1094 16.0344 17.6227 15.4508C17.8899 15.1484 18.0305 15.0852 18.4875 15.0852C18.7758 15.0781 18.9024 15.1203 19.1203 15.282Z" fill="#999999"/>
</svg>
