<svg width="40" height="40" viewBox="0 0 40 40" fill="none" xmlns="http://www.w3.org/2000/svg">
<path opacity="0.21" d="M19.9456 0.292999L20.4583 0.299835C31.1855 0.570511 39.7981 9.3092 39.7981 20.0498C39.798 30.9609 30.9096 39.8056 19.9456 39.8057C8.98144 39.8057 0.0931598 30.961 0.0930176 20.0498C0.0930176 9.13858 8.98136 0.292999 19.9456 0.292999Z" fill="#FEC53D"/>
<path fill-rule="evenodd" clip-rule="evenodd" d="M10.0186 16.3062L18.5554 21.2111C18.6474 21.264 18.7437 21.3021 18.8419 21.3263V30.8393L10.6274 26.0014C10.25 25.7792 10.0186 25.3752 10.0186 24.9388V16.3062ZM29.8705 16.1763V24.9393C29.8705 25.3757 29.639 25.7797 29.2616 26.002L21.0472 30.8398V21.2435C21.0672 21.2336 21.087 21.223 21.1067 21.2117L29.8705 16.1763Z" fill="#FEC53D"/>
<path opacity="0.499209" fill-rule="evenodd" clip-rule="evenodd" d="M10.2877 13.925C10.392 13.794 10.5236 13.6832 10.6771 13.6019L19.3625 8.99819C19.7271 8.80493 20.1645 8.80493 20.5291 8.99819L29.2145 13.6019C29.3328 13.6646 29.4381 13.7448 29.5279 13.8383L20.0053 19.3096C19.9427 19.3456 19.8849 19.3868 19.8323 19.4323C19.7797 19.3868 19.722 19.3456 19.6594 19.3096L10.2877 13.925Z" fill="#FEC53D"/>
</svg>
